<svg width="1920" height="1080" viewBox="0 0 1920 1080" fill="none" xmlns="http://www.w3.org/2000/svg">
<g clip-path="url(#clip0_415_281)">
<ellipse cx="860.897" cy="499.809" rx="205.448" ry="3.22019" fill="#D9D9D9" fill-opacity="0.1"/>
<ellipse cx="1686.46" cy="541.045" rx="128.164" ry="3.22019" fill="#D9D9D9" fill-opacity="0.1"/>
<ellipse cx="148.129" cy="3.22019" rx="148.129" ry="3.22019" transform="matrix(-1 0 0 1 449.258 459.252)" fill="#D9D9D9" fill-opacity="0.1"/>
<ellipse cx="890.425" cy="401.932" rx="98.5379" ry="1.93212" fill="#D9D9D9" fill-opacity="0.05"/>
<ellipse cx="114.639" cy="3.22019" rx="114.639" ry="3.22019" transform="matrix(-1 0 0 1 1685.81 626.702)" fill="#D9D9D9" fill-opacity="0.1"/>
<ellipse cx="435.089" cy="551.349" rx="132.672" ry="3.22019" fill="#D9D9D9" fill-opacity="0.1"/>
<ellipse cx="1119.7" cy="534.603" rx="101.114" ry="3.22019" fill="#D9D9D9" fill-opacity="0.4"/>
<ellipse cx="116.571" cy="3.22019" rx="116.571" ry="3.22019" transform="matrix(-1 0 0 1 1073.98 452.811)" fill="#D9D9D9" fill-opacity="0.4"/>
<ellipse cx="56.0314" cy="3.22019" rx="56.0314" ry="3.22019" transform="matrix(-1 0 0 1 1513.21 674.361)" fill="#D9D9D9" fill-opacity="0.4"/>
<ellipse cx="567.118" cy="599.007" rx="65.0479" ry="3.22019" fill="#D9D9D9" fill-opacity="0.4"/>
</g>
<defs>
<clipPath id="clip0_415_281">
<rect width="1920" height="1080" fill="white"/>
</clipPath>
</defs>
</svg>
